<?xml version="1.0" encoding="UTF-8"?>
<svg id="Layer_2" data-name="Layer 2" xmlns="http://www.w3.org/2000/svg" xmlns:xlink="http://www.w3.org/1999/xlink" viewBox="0 0 147.36 256.77">
  <defs>
    <style>
      .cls-1 {
        fill: none;
      }

      .cls-2 {
        fill: #f18aa5;
      }

      .cls-3 {
        clip-path: url(#clippath-11);
      }

      .cls-4 {
        clip-path: url(#clippath-10);
      }

      .cls-5 {
        clip-path: url(#clippath-1);
      }

      .cls-6 {
        clip-path: url(#clippath-3);
      }

      .cls-7 {
        clip-path: url(#clippath-4);
      }

      .cls-8 {
        clip-path: url(#clippath-2);
      }

      .cls-9 {
        clip-path: url(#clippath-7);
      }

      .cls-10 {
        clip-path: url(#clippath-6);
      }

      .cls-11 {
        clip-path: url(#clippath-9);
      }

      .cls-12 {
        clip-path: url(#clippath-8);
      }

      .cls-13 {
        clip-path: url(#clippath-5);
      }

      .cls-14 {
        fill: #4f4d80;
      }

      .cls-15 {
        fill: #6998cc;
      }

      .cls-16 {
        fill: #f4a6be;
      }

      .cls-17 {
        clip-path: url(#clippath);
      }
    </style>
    <clipPath id="clippath">
      <polygon class="cls-1" points="45.74 31.11 45.74 31.11 57.7 31.11 57.7 43.07 45.74 43.07 45.74 31.11"/>
    </clipPath>
    <clipPath id="clippath-1">
      <polygon class="cls-1" points="100.22 31.11 100.22 31.11 88.26 31.11 88.26 43.07 100.22 43.07 100.22 31.11"/>
    </clipPath>
    <clipPath id="clippath-2">
      <polygon class="cls-1" points="40.51 91.65 40.51 91.65 69.42 91.65 69.42 102.12 40.51 102.12 40.51 91.65"/>
    </clipPath>
    <clipPath id="clippath-3">
      <polygon class="cls-1" points="106.12 91.65 106.12 91.65 77.21 91.65 77.21 102.12 106.12 102.12 106.12 91.65"/>
    </clipPath>
    <clipPath id="clippath-4">
      <polygon class="cls-1" points="25.57 184.62 25.57 184.62 70.73 184.62 70.73 256.77 25.57 256.77 25.57 184.62"/>
    </clipPath>
    <clipPath id="clippath-5">
      <polygon class="cls-1" points="121.79 184.62 121.79 184.62 76.63 184.62 76.63 256.77 121.79 256.77 121.79 184.62"/>
    </clipPath>
    <clipPath id="clippath-6">
      <polygon class="cls-1" points="122.9 80.27 122.9 80.27 147.36 80.27 147.36 202.21 122.9 202.21 122.9 80.27"/>
    </clipPath>
    <clipPath id="clippath-7">
      <rect class="cls-1" x="134.66" y="180.98" width="11.77" height="21.23"/>
    </clipPath>
    <clipPath id="clippath-8">
      <rect class="cls-1" x="122.9" y="180.98" width="11.77" height="21.23"/>
    </clipPath>
    <clipPath id="clippath-9">
      <polygon class="cls-1" points="24.46 80.27 24.46 80.27 0 80.27 0 202.21 24.46 202.21 24.46 80.27"/>
    </clipPath>
    <clipPath id="clippath-10">
      <rect class="cls-1" x=".93" y="180.98" width="11.77" height="21.23"/>
    </clipPath>
    <clipPath id="clippath-11">
      <rect class="cls-1" x="12.7" y="180.98" width="11.77" height="21.23"/>
    </clipPath>
  </defs>
  <rect class="cls-15" x="34.41" y="13.66" width="78.54" height="50.95" rx="8.54" ry="8.54"/>
  <path class="cls-15" d="M116.89,72.78H29.07c-2.21,0-4,1.79-4,4v31.4c3.66,66.3,8.65,70.81,15.44,70.81h65.61c14.77,0,8.16-14.12,14.77-79.86v-22.35c0-2.21-1.79-4-4-4Z"/>
  <path class="cls-15" d="M63.01,174.47h19.93v20.35c0,1.66-1.34,3-3,3h-13.93c-1.66,0-3-1.34-3-3v-20.35h0Z"/>
  <path class="cls-15" d="M82.74,58.47h-18.61c3.1,6.07,3.91,11.48,0,15.53h18.61c-3.39-3.46-2.76-8.96,0-15.53Z"/>
  <rect class="cls-16" x="32.6" y="84.99" width="81.68" height="22.2" rx="11" ry="11"/>
  <g>
    <path class="cls-14" d="M51.43,49.48c-7.13,0-12.93-5.8-12.93-12.93s5.8-12.93,12.93-12.93h43.76c7.13,0,12.93,5.8,12.93,12.93s-5.8,12.93-12.93,12.93h-43.76Z"/>
    <path class="cls-16" d="M95.19,25.63c6.04,0,10.93,4.89,10.93,10.93h0c0,6.04-4.89,10.93-10.93,10.93h-43.76c-6.04,0-10.93-4.89-10.93-10.93h0c0-6.04,4.89-10.93,10.93-10.93h43.76M95.19,21.63h-43.76c-8.23,0-14.93,6.7-14.93,14.93s6.7,14.93,14.93,14.93h43.76c8.23,0,14.93-6.7,14.93-14.93s-6.7-14.93-14.93-14.93h0Z"/>
  </g>
  <path class="cls-14" d="M62.02,0h22.85C89.28,0,92.86,3.58,92.86,8v.13c0,1.1-.9,2-2,2h-34.85c-1.1,0-2-.9-2-2v-.13C54.02,3.58,57.6,0,62.02,0Z"/>
  <g>
    <g id="_Mirror_Repeat_" data-name="&amp;lt;Mirror Repeat&amp;gt;">
      <g class="cls-17">
        <circle class="cls-2" cx="51.72" cy="37.09" r="5.98"/>
      </g>
    </g>
    <g id="_Mirror_Repeat_-2" data-name="&amp;lt;Mirror Repeat&amp;gt;">
      <g class="cls-5">
        <circle class="cls-2" cx="94.24" cy="37.09" r="5.98"/>
      </g>
    </g>
  </g>
  <g>
    <g id="_Mirror_Repeat_-3" data-name="&amp;lt;Mirror Repeat&amp;gt;">
      <g class="cls-8">
        <circle class="cls-14" cx="64.19" cy="96.88" r="5.23"/>
        <circle class="cls-14" cx="45.74" cy="96.88" r="5.23"/>
      </g>
    </g>
    <g id="_Mirror_Repeat_-4" data-name="&amp;lt;Mirror Repeat&amp;gt;">
      <g class="cls-6">
        <circle class="cls-14" cx="82.44" cy="96.88" r="5.23"/>
        <circle class="cls-14" cx="100.89" cy="96.88" r="5.23"/>
      </g>
    </g>
  </g>
  <g>
    <g id="_Mirror_Repeat_-5" data-name="&amp;lt;Mirror Repeat&amp;gt;">
      <g class="cls-7">
        <rect class="cls-14" x="36.75" y="184.62" width="21.35" height="52.19" rx="2" ry="2"/>
        <path class="cls-16" d="M35.57,239.21h25.16c5.52,0,10,4.48,10,10v7.56H25.57v-7.56c0-5.52,4.48-10,10-10Z"/>
      </g>
    </g>
    <g id="_Mirror_Repeat_-6" data-name="&amp;lt;Mirror Repeat&amp;gt;">
      <g class="cls-13">
        <rect class="cls-14" x="89.26" y="184.62" width="21.35" height="52.19" rx="2" ry="2" transform="translate(199.87 421.43) rotate(180)"/>
        <path class="cls-16" d="M76.63,239.21h45.16v7.56c0,5.52-4.48,10-10,10h-25.16c-5.52,0-10-4.48-10-10v-7.56h0Z" transform="translate(198.42 495.98) rotate(180)"/>
      </g>
    </g>
  </g>
  <g id="Layer_3" data-name="Layer 3">
    <g>
      <path class="cls-16" d="M35.9,113.97c3.04-.53,9.19-.93,14.96-.93,7.06,0,11.39.6,15.11,2.52,3.57,1.66,6.15,4.72,6.15,8.77s-2.66,7.71-8.43,9.56v.13c5.85,1.4,10.17,5.25,10.17,11.03,0,4.05-2.13,7.24-5.31,9.5-3.72,2.59-9.95,4.05-20.12,4.05-5.69,0-9.95-.33-12.53-.66v-43.97ZM47.36,131.11h3.8c6.07,0,9.34-2.19,9.34-5.51s-2.96-5.18-8.2-5.18c-2.51,0-3.95.13-4.94.27v10.43ZM47.36,150.97c1.14.13,2.51.13,4.48.13,5.24,0,9.87-1.73,9.87-6.44s-4.63-6.31-10.4-6.31h-3.95v12.62Z"/>
      <path class="cls-16" d="M75.98,113.97c3.72-.53,9.26-.93,15.41-.93,7.59,0,12.91,1,16.55,3.52,3.04,2.13,4.71,5.25,4.71,9.37,0,5.71-4.63,9.63-9.04,11.03v.2c3.57,1.26,5.54,4.25,6.83,8.37,1.59,5.05,3.19,10.89,4.18,12.62h-11.84c-.83-1.26-2.05-4.92-3.57-10.43-1.37-5.58-3.57-7.11-8.28-7.17h-3.49v17.6h-11.47v-44.17ZM87.45,133.23h4.56c5.77,0,9.19-2.52,9.19-6.44,0-4.12-3.19-6.18-8.5-6.24-2.81,0-4.4.2-5.24.33v12.35Z"/>
    </g>
    <g>
      <path class="cls-2" d="M34.53,164.6c.68-.12,2.05-.21,3.34-.21,1.58,0,2.55.13,3.38.56.8.37,1.37,1.05,1.37,1.96s-.59,1.72-1.88,2.14v.03c1.31.31,2.27,1.17,2.27,2.46,0,.91-.48,1.62-1.19,2.12-.83.58-2.22.91-4.5.91-1.27,0-2.22-.07-2.8-.15v-9.83ZM37.09,168.43h.85c1.36,0,2.09-.49,2.09-1.23s-.66-1.16-1.83-1.16c-.56,0-.88.03-1.1.06v2.33ZM37.09,172.87c.25.03.56.03,1,.03,1.17,0,2.21-.39,2.21-1.44s-1.04-1.41-2.32-1.41h-.88v2.82Z"/>
      <path class="cls-2" d="M43.68,164.6c.83-.12,2.07-.21,3.44-.21,1.7,0,2.88.22,3.7.79.68.47,1.05,1.17,1.05,2.09,0,1.28-1.04,2.15-2.02,2.46v.04c.8.28,1.24.95,1.53,1.87.36,1.13.71,2.44.93,2.82h-2.65c-.19-.28-.46-1.1-.8-2.33-.31-1.25-.8-1.59-1.85-1.6h-.78v3.93h-2.56v-9.87ZM46.24,168.91h1.02c1.29,0,2.05-.56,2.05-1.44,0-.92-.71-1.38-1.9-1.4-.63,0-.98.04-1.17.07v2.76Z"/>
      <path class="cls-2" d="M63.11,169.37c0,3.28-2.27,5.27-5.62,5.27s-5.38-2.24-5.38-5.09c0-3,2.19-5.24,5.57-5.24s5.43,2.3,5.43,5.06ZM54.85,169.5c0,1.96,1.05,3.34,2.78,3.34s2.75-1.46,2.75-3.4c0-1.8-.98-3.34-2.77-3.34s-2.77,1.46-2.77,3.4Z"/>
      <path class="cls-2" d="M74.18,169.37c0,3.28-2.27,5.27-5.62,5.27s-5.38-2.24-5.38-5.09c0-3,2.19-5.24,5.57-5.24s5.43,2.3,5.43,5.06ZM65.91,169.5c0,1.96,1.05,3.34,2.78,3.34s2.75-1.46,2.75-3.4c0-1.8-.98-3.34-2.77-3.34s-2.77,1.46-2.77,3.4Z"/>
      <path class="cls-2" d="M74.78,164.47h2.56v4.42h.05c.25-.39.53-.74.78-1.1l2.6-3.33h3.17l-3.78,4.26,3.99,5.75h-3.02l-2.8-4.32-.98,1.05v3.27h-2.56v-10.01Z"/>
      <path class="cls-2" d="M84.09,164.47h2.6v8.11h4.55v1.9h-7.14v-10.01Z"/>
      <path class="cls-2" d="M94.26,164.47v10.01h-2.6v-10.01h2.6Z"/>
      <path class="cls-2" d="M95.4,174.47v-10.01h3.02l2.38,3.67c.68,1.05,1.36,2.3,1.87,3.43h.05c-.17-1.32-.22-2.67-.22-4.17v-2.92h2.38v10.01h-2.71l-2.44-3.86c-.68-1.07-1.42-2.36-1.99-3.53h-.05c.07,1.34.1,2.75.1,4.38v3.01h-2.38Z"/>
      <path class="cls-2" d="M112.81,170.24h-4.21v2.38h4.7v1.86h-7.3v-10.01h7.06v1.86h-4.46v2.08h4.21v1.84Z"/>
    </g>
  </g>
  <g>
    <g id="_Mirror_Repeat_-7" data-name="&amp;lt;Mirror Repeat&amp;gt;">
      <g class="cls-10">
        <path class="cls-14" d="M131.88,80.27h12.48c1.66,0,3,1.34,3,3v34.91c0,1.1-.9,2-2,2h0c-9.09,0-16.48-7.38-16.48-16.48v-20.43c0-1.66,1.34-3,3-3Z" transform="translate(276.25 200.46) rotate(-180)"/>
        <rect class="cls-15" x="128.42" y="124.29" width="12.44" height="38.78" rx="2" ry="2" transform="translate(269.28 287.36) rotate(-180)"/>
        <circle class="cls-14" cx="134.64" cy="177.17" r="10.72"/>
        <g>
          <g id="_Mirror_Repeat_-8" data-name="&amp;lt;Mirror Repeat&amp;gt;">
            <g class="cls-9">
              <path class="cls-14" d="M144.66,180.98s1.41,2.61,1.66,5.74,0,11.66,0,11.66l-6.71,3.82s1.71-14.41-4.98-14.32,10.02-6.91,10.02-6.91Z"/>
            </g>
          </g>
          <g id="_Mirror_Repeat_-9" data-name="&amp;lt;Mirror Repeat&amp;gt;">
            <g class="cls-12">
              <path class="cls-14" d="M124.67,180.98s-1.41,2.61-1.66,5.74,0,11.66,0,11.66l6.71,3.82s-1.71-14.41,4.98-14.32-10.02-6.91-10.02-6.91Z"/>
            </g>
          </g>
        </g>
      </g>
    </g>
    <g id="_Mirror_Repeat_-10" data-name="&amp;lt;Mirror Repeat&amp;gt;">
      <g class="cls-11">
        <path class="cls-14" d="M16.48,80.27h0c1.1,0,2,.9,2,2v34.91c0,1.66-1.34,3-3,3H3C1.34,120.18,0,118.84,0,117.18v-20.43C0,87.66,7.38,80.27,16.48,80.27Z"/>
        <rect class="cls-15" x="6.5" y="124.29" width="12.44" height="38.78" rx="2" ry="2"/>
        <circle class="cls-14" cx="12.72" cy="177.17" r="10.72"/>
        <g>
          <g id="_Mirror_Repeat_-11" data-name="&amp;lt;Mirror Repeat&amp;gt;">
            <g class="cls-4">
              <path class="cls-14" d="M2.7,180.98s-1.41,2.61-1.66,5.74,0,11.66,0,11.66l6.71,3.82s-1.71-14.41,4.98-14.32-10.02-6.91-10.02-6.91Z"/>
            </g>
          </g>
          <g id="_Mirror_Repeat_-12" data-name="&amp;lt;Mirror Repeat&amp;gt;">
            <g class="cls-3">
              <path class="cls-14" d="M22.69,180.98s1.41,2.61,1.66,5.74,0,11.66,0,11.66l-6.71,3.82s1.71-14.41-4.98-14.32c-6.69.09,10.02-6.91,10.02-6.91Z"/>
            </g>
          </g>
        </g>
      </g>
    </g>
  </g>
</svg>